# xmcd
#
# Track frame offsets:
#	150
#	22582
#	45265
#	67940
#	88962
#	109232
#	127905
#	151300
#	175045
#	185862
#	204400
#
# Disc length: 2999 seconds
#
# Revision: 0
# Processed by: cddbd v1.4PL0 Copyright (c) Steve Scherf et al.
# Submitted via: EasyCDDAExtractor 5.0.5.1
#
DISCID=840bb50b
DTITLE=E.B. Fraley - Long Way From Home
DYEAR=1995
DGENRE=Blues
TTITLE0=Don't Call Me Jack
TTITLE1=Leave You Be
TTITLE2=You Gotta Move
TTITLE3=Swanky Mode
TTITLE4=Little Red Phone
TTITLE5=Lighthouse of Love
TTITLE6=What's Your Game
TTITLE7=Lonely Nights
TTITLE8=Don't Send Me Back to The Blues
TTITLE9=Blue J Blues
TTITLE10=Corndog
EXTD=
EXTT0=
EXTT1=
EXTT2=
EXTT3=
EXTT4=
EXTT5=
EXTT6=
EXTT7=
EXTT8=
EXTT9=
EXTT10=
PLAYORDER=
